<?xml version="1.0" encoding="UTF-8" standalone="no"?><!-- Generator: Gravit.io --><svg xmlns="http://www.w3.org/2000/svg" xmlns:xlink="http://www.w3.org/1999/xlink" style="isolation:isolate" viewBox="0 0 1118 952" width="1118pt" height="952pt"><defs><clipPath id="_clipPath_xRDJ3P6fmQPDy9XE1wVB8AQVQiPYPDV6"><rect width="1118" height="952"/></clipPath></defs><g clip-path="url(#_clipPath_xRDJ3P6fmQPDy9XE1wVB8AQVQiPYPDV6)"><g><rect x="99.374" y="6" width="952.626" height="952.626" transform="matrix(1,0,0,1,0,0)" fill="rgb(43,182,115)" fill-opacity="0.31"/><text transform="matrix(0.95,0,0,0.95,157.13,350.046)" style="font-family:'Poppins';font-weight:700;font-size:50px;font-style:normal;font-variant-ligatures:none;fill:[Object GRGBColor];stroke:#231F20;stroke-width:1;">SMART VISION SCHOOL - AL BARSHA</text><text transform="matrix(0.95,0,0,0.95,291.46,299.532)" style="font-family:'Poppins';font-weight:700;font-size:70px;font-style:normal;font-variant-ligatures:none;fill:[Object GRGBColor];stroke:#231F20;stroke-width:1;">SOCIAL FOOTBALL</text><text transform="matrix(0.95,0,0,0.95,140.897,423.987)" style="font-family:'Poppins';font-weight:700;font-size:50px;font-style:normal;font-variant-ligatures:none;fill:[Object GRGBColor];stroke:#231F20;stroke-width:1;">SATURDAYS | MONDAYS | THURSDAYS</text><text transform="matrix(0.95,0,0,0.95,433.63,621.794)" style="font-family:'Poppins';font-weight:700;font-size:45px;font-style:normal;font-variant-ligatures:none;fill:[Object GRGBColor];stroke:none;">30</text><text transform="matrix(0.95,0,0,0.95,487.043,621.794)" style="font-family:'Poppins';font-weight:700;font-size:45px;font-style:normal;font-variant-ligatures:none;fill:[Object GRGBColor];stroke:none;">AED Per Hour </text><text transform="matrix(0.95,0,0,0.95,245.403,675.016)" style="font-family:'Poppins';font-weight:700;font-size:45px;font-style:normal;font-variant-ligatures:none;fill:[Object GRGBColor];stroke:none;">300</text><text transform="matrix(0.95,0,0,0.95,326.368,675.016)" style="font-family:'Poppins';font-weight:700;font-size:45px;font-style:normal;font-variant-ligatures:none;fill:[Object GRGBColor];stroke:none;">AED Per Month (Unlimited)      </text><mask id="_mask_N7L6mKsZTaq1GUPeVduYmMxv5V6rvr6c" x="-200%" y="-200%" width="400%" height="400%"><rect x="-200%" y="-200%" width="400%" height="400%" style="fill:white;"/><path d=" M 795.353 818.042 L 372.577 841.175 Q 369.241 648.529 365.924 455.892 L 787.902 437.948 Q 791.552 628.038 795.353 818.042 Z " fill="black" stroke="none"/></mask><path d=" M 795.353 818.042 L 372.577 841.175 Q 369.241 648.529 365.924 455.892 L 787.902 437.948 Q 791.552 628.038 795.353 818.042 Z " fill="rgb(230,231,232)" mask="url(#_mask_N7L6mKsZTaq1GUPeVduYmMxv5V6rvr6c)" vector-effect="non-scaling-stroke" stroke-width="2" stroke="rgb(255,242,0)" stroke-linejoin="miter" stroke-linecap="butt" stroke-miterlimit="10"/><path d=" M 795.353 818.042 L 372.577 841.175 Q 369.241 648.529 365.924 455.892 L 787.902 437.948 Q 791.552 628.038 795.353 818.042 Z " fill="rgb(230,231,232)"/><text transform="matrix(0.95,0.004,-0.004,0.95,401.051,521.527)" style="font-family:'Open Sans';font-weight:700;font-size:60px;font-style:normal;font-variant-ligatures:none;fill:[Object GRGBColor];stroke:none;">7PM TO 10PM</text><text transform="matrix(0.95,0.011,-0.011,0.95,612.725,646.902)" style="font-family:'Poppins';font-weight:500;font-size:22px;font-style:italic;font-variant-ligatures:none;fill:[Object GRGBColor];stroke:none;">*Bibs and water included.</text><rect x="559.967" y="123.631" width="19.673" height="52.776" transform="matrix(1,0,0,1,0,0)" fill="rgb(0,161,75)" vector-effect="non-scaling-stroke" stroke-width="1" stroke="rgb(255,255,255)" stroke-linejoin="miter" stroke-linecap="butt" stroke-miterlimit="2"/><mask id="_mask_sihfyxRYisglIxfBqNvTvEPBUTnzpP65" x="-200%" y="-200%" width="400%" height="400%"><rect x="-200%" y="-200%" width="400%" height="400%" style="fill:white;"/><path d=" M 565.432 188.002 C 563.342 189.143 561.744 191.014 560.946 193.258 C 557.145 203.427 565.499 213.216 574.176 208.759 C 576.264 207.615 577.86 205.745 578.662 203.503 C 582.463 193.353 574.109 183.526 565.432 188.002 Z " fill="black" stroke="none"/></mask><path d=" M 565.432 188.002 C 563.342 189.143 561.744 191.014 560.946 193.258 C 557.145 203.427 565.499 213.216 574.176 208.759 C 576.264 207.615 577.86 205.745 578.662 203.503 C 582.463 193.353 574.109 183.526 565.432 188.002 Z " fill="rgb(0,161,75)" mask="url(#_mask_sihfyxRYisglIxfBqNvTvEPBUTnzpP65)" vector-effect="non-scaling-stroke" stroke-width="2" stroke="rgb(255,255,255)" stroke-linejoin="miter" stroke-linecap="butt" stroke-miterlimit="10"/><path d=" M 565.432 188.002 C 563.342 189.143 561.744 191.014 560.946 193.258 C 557.145 203.427 565.499 213.216 574.176 208.759 C 576.264 207.615 577.86 205.745 578.662 203.503 C 582.463 193.353 574.109 183.526 565.432 188.002 Z " fill="rgb(0,161,75)"/><mask id="_mask_JNxCZNYzcAcDAPAPFfbQpxy2Am4T0KUD" x="-200%" y="-200%" width="400%" height="400%"><rect x="-200%" y="-200%" width="400%" height="400%" style="fill:white;"/><path d=" M 692.301 154.348 L 688.452 132.194 C 679.157 132.632 673.122 134.913 668.845 139.598 L 668.845 124.078 L 649.172 124.078 L 649.172 203.845 L 668.845 203.845 L 668.845 167.929 C 672.504 155.764 683.301 149.986 692.301 154.348 Z " fill="black" stroke="none"/></mask><path d=" M 692.301 154.348 L 688.452 132.194 C 679.157 132.632 673.122 134.913 668.845 139.598 L 668.845 124.078 L 649.172 124.078 L 649.172 203.845 L 668.845 203.845 L 668.845 167.929 C 672.504 155.764 683.301 149.986 692.301 154.348 Z " fill="rgb(0,161,75)" mask="url(#_mask_JNxCZNYzcAcDAPAPFfbQpxy2Am4T0KUD)" vector-effect="non-scaling-stroke" stroke-width="2" stroke="rgb(255,255,255)" stroke-linejoin="miter" stroke-linecap="butt" stroke-miterlimit="10"/><path d=" M 692.301 154.348 L 688.452 132.194 C 679.157 132.632 673.122 134.913 668.845 139.598 L 668.845 124.078 L 649.172 124.078 L 649.172 203.845 L 668.845 203.845 L 668.845 167.929 C 672.504 155.764 683.301 149.986 692.301 154.348 Z " fill="rgb(0,161,75)"/><mask id="_mask_F4n0daSPmWlv1W4EWYzBxQ56rwsT6Nvx" x="-200%" y="-200%" width="400%" height="400%"><rect x="-200%" y="-200%" width="400%" height="400%" style="fill:white;"/><path d=" M 549.456 154.842 L 534.753 139.208 L 520.497 153.312 L 520.497 124.087 L 500.824 103.179 L 500.824 172.796 C 495.997 177.919 489.679 181.391 482.766 182.718 L 492.09 203.902 C 505.899 199.435 513.768 189.979 515.413 188.544 L 538.441 203.75 L 549.513 184.59 L 531.455 172.662 L 549.456 154.842 Z " fill="black" stroke="none"/></mask><path d=" M 549.456 154.842 L 534.753 139.208 L 520.497 153.312 L 520.497 124.087 L 500.824 103.179 L 500.824 172.796 C 495.997 177.919 489.679 181.391 482.766 182.718 L 492.09 203.902 C 505.899 199.435 513.768 189.979 515.413 188.544 L 538.441 203.75 L 549.513 184.59 L 531.455 172.662 L 549.456 154.842 Z " fill="rgb(0,161,75)" mask="url(#_mask_F4n0daSPmWlv1W4EWYzBxQ56rwsT6Nvx)" vector-effect="non-scaling-stroke" stroke-width="2" stroke="rgb(255,255,255)" stroke-linejoin="miter" stroke-linecap="butt" stroke-miterlimit="10"/><path d=" M 549.456 154.842 L 534.753 139.208 L 520.497 153.312 L 520.497 124.087 L 500.824 103.179 L 500.824 172.796 C 495.997 177.919 489.679 181.391 482.766 182.718 L 492.09 203.902 C 505.899 199.435 513.768 189.979 515.413 188.544 L 538.441 203.75 L 549.513 184.59 L 531.455 172.662 L 549.456 154.842 Z " fill="rgb(0,161,75)"/><mask id="_mask_KdRNHijQt85emrnh7G2wWTnxQHRAJ1qk" x="-200%" y="-200%" width="400%" height="400%"><rect x="-200%" y="-200%" width="400%" height="400%" style="fill:white;"/><path d=" M 638.651 154.842 L 623.958 139.208 L 609.74 153.312 L 609.74 124.087 L 609.597 123.945 L 590.057 123.945 L 590.057 203.988 L 609.74 203.988 L 609.74 191.937 L 627.674 203.779 L 638.746 184.609 L 620.669 172.682 L 638.651 154.842 L 638.651 154.842 Z " fill="black" stroke="none"/></mask><path d=" M 638.651 154.842 L 623.958 139.208 L 609.74 153.312 L 609.74 124.087 L 609.597 123.945 L 590.057 123.945 L 590.057 203.988 L 609.74 203.988 L 609.74 191.937 L 627.674 203.779 L 638.746 184.609 L 620.669 172.682 L 638.651 154.842 L 638.651 154.842 Z " fill="rgb(0,161,75)" mask="url(#_mask_KdRNHijQt85emrnh7G2wWTnxQHRAJ1qk)" vector-effect="non-scaling-stroke" stroke-width="2" stroke="rgb(255,255,255)" stroke-linejoin="miter" stroke-linecap="butt" stroke-miterlimit="10"/><path d=" M 638.651 154.842 L 623.958 139.208 L 609.74 153.312 L 609.74 124.087 L 609.597 123.945 L 590.057 123.945 L 590.057 203.988 L 609.74 203.988 L 609.74 191.937 L 627.674 203.779 L 638.746 184.609 L 620.669 172.682 L 638.651 154.842 L 638.651 154.842 Z " fill="rgb(0,161,75)"/><mask id="_mask_oGbp237HlPyd3OSZIGK2ROdWXje5PimU" x="-200%" y="-200%" width="400%" height="400%"><rect x="-200%" y="-200%" width="400%" height="400%" style="fill:white;"/><path d=" M 910.96 714.99 L 240.927 699.622 Q 230.121 621.689 219.296 543.756 L 921.016 559.809 L 910.96 714.99 Z " fill="black" stroke="none"/></mask><path d=" M 910.96 714.99 L 240.927 699.622 Q 230.121 621.689 219.296 543.756 L 921.016 559.809 L 910.96 714.99 Z " fill="rgb(255,222,23)" mask="url(#_mask_oGbp237HlPyd3OSZIGK2ROdWXje5PimU)" vector-effect="non-scaling-stroke" stroke-width="2" stroke="rgb(255,255,255)" stroke-linejoin="miter" stroke-linecap="butt" stroke-miterlimit="10"/><path d=" M 910.96 714.99 L 240.927 699.622 Q 230.121 621.689 219.296 543.756 L 921.016 559.809 L 910.96 714.99 Z " fill="rgb(255,222,23)"/><mask id="_mask_xAT5h3M0eknlwKslLQ4clnQ3gtWrirmj" x="-200%" y="-200%" width="400%" height="400%"><rect x="-200%" y="-200%" width="400%" height="400%" style="fill:white;"/><path d=" M 780.014 868.756 Q 776.516 862.483 773.048 856.211" fill="black" stroke="none"/></mask><path d=" M 780.014 868.756 Q 776.516 862.483 773.048 856.211" fill="rgb(255,222,23)" mask="url(#_mask_xAT5h3M0eknlwKslLQ4clnQ3gtWrirmj)" vector-effect="non-scaling-stroke" stroke-width="2" stroke="rgb(255,255,255)" stroke-linejoin="miter" stroke-linecap="butt" stroke-miterlimit="10"/><path d=" M 780.014 868.756 Q 776.516 862.483 773.048 856.211" fill="rgb(255,222,23)"/><text transform="matrix(0.95,0,0,0.95,420.543,612.442)" style="font-family:'Poppins';font-weight:700;font-size:45px;font-style:normal;font-variant-ligatures:none;fill:[Object GRGBColor];stroke:none;">30</text><text transform="matrix(0.95,0,0,0.95,473.956,612.442)" style="font-family:'Poppins';font-weight:700;font-size:45px;font-style:normal;font-variant-ligatures:none;fill:[Object GRGBColor];stroke:none;">AED Per Hour</text><text transform="matrix(0.95,0,0,0.95,244.51,665.664)" style="font-family:'Poppins';font-weight:700;font-size:45px;font-style:normal;font-variant-ligatures:none;fill:[Object GRGBColor];stroke:none;">300</text><text transform="matrix(0.95,0,0,0.95,325.475,665.664)" style="font-family:'Poppins';font-weight:700;font-size:45px;font-style:normal;font-variant-ligatures:none;fill:[Object GRGBColor];stroke:none;">AED Per Month (Unlimited)</text><text transform="matrix(0.827,0.007,-0.008,0.95,470.866,784.732)" style="font-family:'Open Sans';font-weight:700;font-size:60px;font-style:normal;font-variant-ligatures:none;fill:[Object GRGBColor];stroke:none;">050 712 1314</text><path d=" M 425.485 805.345 C 419.078 805.343 412.783 803.651 407.238 800.441 L 392.982 805.345 L 395.918 790.253 C 391.341 784.025 388.883 776.493 388.905 768.764 C 388.905 748.561 405.282 732.183 425.485 732.183 C 445.689 732.183 462.066 748.561 462.066 768.764 C 462.066 788.967 445.689 805.345 425.485 805.345 L 425.485 805.345 Z " fill="rgb(63,181,73)"/><path d=" M 425.485 746.639 C 417.027 746.628 409.304 751.448 405.597 759.051 C 401.889 766.654 402.847 775.706 408.065 782.364 L 406.582 789.968 L 413.767 787.497 C 421.732 792.477 431.974 791.883 439.309 786.015 C 446.644 780.146 449.472 770.285 446.361 761.421 C 443.25 752.557 434.879 746.626 425.485 746.629 L 425.485 746.639 Z " fill="none"/><path d=" M 425.485 792.667 C 421.299 792.665 417.188 791.556 413.568 789.454 L 404.254 792.667 L 406.154 782.801 C 403.168 778.731 401.563 773.812 401.573 768.764 C 401.573 755.563 412.275 744.862 425.476 744.862 C 438.677 744.862 449.379 755.563 449.379 768.764 C 449.379 781.965 438.677 792.667 425.476 792.667 L 425.485 792.667 Z  M 413.995 785.548 L 414.717 785.995 C 423.654 791.599 435.392 789.445 441.756 781.032 C 448.12 772.619 446.999 760.737 439.175 753.663 C 431.35 746.588 419.416 746.666 411.685 753.842 C 403.954 761.019 402.988 772.914 409.462 781.243 L 409.965 781.88 L 408.92 787.268 L 413.995 785.548 Z " fill="rgb(255,255,255)"/><path d=" M 413.415 759.583 C 413.415 759.583 414.822 757.131 415.963 756.989 C 415.963 756.989 418.586 756.846 418.975 757.597 C 418.975 757.597 421.152 762.691 421.152 762.691 C 421.324 763.178 421.265 763.717 420.99 764.155 C 420.529 764.784 420.02 765.378 419.469 765.932 C 419.13 766.389 419.13 767.014 419.469 767.472 C 420.456 768.951 421.583 770.332 422.834 771.596 C 424.452 772.976 426.298 774.063 428.289 774.809 C 428.596 774.842 428.903 774.746 429.135 774.543 C 429.458 774.219 431.235 772.005 431.235 772.005 C 431.61 771.562 432.24 771.436 432.756 771.701 C 433.706 772.129 437.793 774.172 437.793 774.172 C 438.134 774.36 438.326 774.736 438.278 775.122 C 438.279 776.216 437.969 777.287 437.385 778.211 C 436.122 779.664 434.326 780.545 432.404 780.654 C 429.772 780.654 423.509 778.515 420.163 775.179 C 416.818 771.843 413.862 768.45 413.168 765.371 C 412.475 762.292 412.56 760.847 413.415 759.583 Z " fill="rgb(255,255,255)"/><text transform="matrix(0.95,0,0,0.95,439.875,916.561)" style="font-family:'Poppins';font-weight:600;font-size:45px;font-style:normal;font-variant-ligatures:none;fill:[Object GRGBColor];stroke:none;">www.kikr.ae</text></g></g></svg>